<?xml version="1.0" standalone="no"?>
<!DOCTYPE svg PUBLIC "-//W3C//DTD SVG 20010904//EN"
 "http://www.w3.org/TR/2001/REC-SVG-20010904/DTD/svg10.dtd">
<svg version="1.0" xmlns="http://www.w3.org/2000/svg"
 width="2000.000000pt" height="2000.000000pt" viewBox="0 0 2000.000000 2000.000000"
 preserveAspectRatio="xMidYMid meet">

<g transform="translate(0.000000,2000.000000) scale(0.100000,-0.100000)"
fill="#000000" stroke="none">
<path d="M10445 13973 c-187 -39 -249 -66 -379 -167 -185 -143 -243 -234 -344
-551 -150 -467 -274 -943 -417 -1595 -19 -91 -40 -183 -45 -205 -5 -22 -34
-157 -64 -300 -97 -455 -106 -497 -142 -655 -19 -85 -42 -186 -50 -225 -34
-161 -151 -618 -221 -860 -143 -501 -267 -843 -403 -1116 -308 -613 -622 -975
-1005 -1155 -88 -42 -234 -84 -289 -84 -38 0 -47 5 -107 68 -110 113 -129 137
-477 604 -29 38 -39 45 -53 37 -11 -6 -20 -5 -24 1 -6 10 -5 11 14 14 19 2 19
12 1 13 -11 1 -22 -7 -25 -18 -4 -11 -10 -17 -15 -14 -5 3 -12 0 -16 -6 -4 -7
-3 -9 4 -5 26 16 22 -18 -6 -47 -16 -18 -28 -40 -27 -49 2 -9 -4 -19 -12 -22
-8 -3 -11 -10 -8 -16 3 -5 -1 -10 -9 -10 -25 0 -30 -21 -9 -42 15 -15 20 -16
20 -4 0 8 -5 14 -10 13 -5 -1 -12 4 -14 11 -3 9 2 12 13 10 13 -2 19 3 18 14
-2 23 28 7 32 -16 2 -14 0 -15 -12 -5 -12 9 -14 6 -14 -18 0 -16 6 -35 13 -42
10 -10 8 -11 -7 -5 -13 5 -17 4 -12 -4 5 -8 2 -10 -9 -5 -13 5 -14 8 -3 15 8
5 3 7 -17 4 -16 -2 -33 -5 -36 -5 -4 -1 -10 -9 -13 -18 -6 -15 -4 -15 14 2 11
10 21 15 21 12 1 -4 2 -12 3 -18 0 -7 10 -15 21 -20 19 -7 19 -8 -1 -8 -22 -1
-43 -31 -22 -31 6 0 8 -3 5 -6 -4 -4 -13 -1 -21 5 -9 7 -17 8 -20 2 -3 -5 -16
-7 -29 -5 -12 2 -16 2 -9 -2 6 -3 10 -9 7 -14 -6 -10 28 -7 36 3 3 5 9 1 12
-8 4 -9 3 -13 -2 -10 -5 3 -12 1 -16 -5 -4 -6 -10 -8 -15 -5 -4 3 -7 -3 -6
-12 0 -9 -5 -18 -13 -21 -9 -3 -11 0 -6 9 5 8 5 11 0 7 -4 -4 -14 -3 -21 3 -9
7 -14 6 -20 -3 -4 -7 -4 -10 1 -6 4 4 19 -1 32 -12 13 -10 31 -16 39 -13 9 3
14 -1 13 -13 0 -11 -3 -14 -5 -7 -7 17 -34 4 -34 -16 0 -14 -2 -14 -10 -1 -6
9 -5 17 2 21 6 4 -1 6 -16 6 -22 -2 -24 -4 -11 -13 8 -6 15 -16 15 -22 0 -6 9
-14 21 -17 11 -4 19 -9 16 -11 -2 -3 -16 0 -30 5 -21 8 -26 7 -30 -10 -3 -11
-9 -19 -14 -18 -4 1 -16 -1 -25 -5 -15 -7 -15 -10 -3 -22 18 -19 31 -18 15 1
-15 18 -17 17 37 20 33 3 40 1 31 -9 -14 -15 -40 -17 -31 -3 3 5 0 8 -7 5 -7
-2 -15 -15 -17 -28 -5 -31 -12 -38 -23 -20 -8 13 -10 12 -10 -2 0 -11 10 -20
25 -24 30 -7 33 -24 5 -31 -11 -3 -17 -10 -13 -16 3 -5 1 -7 -5 -3 -5 3 -12 3
-15 -1 -2 -5 -2 -3 -1 4 4 17 -21 34 -41 27 -12 -5 -14 -9 -4 -15 19 -11 21
-42 3 -35 -8 3 -13 2 -9 -3 3 -5 0 -11 -6 -13 -6 -2 -11 -16 -11 -30 0 -20 -4
-25 -17 -21 -12 4 -11 2 3 -9 14 -11 16 -17 6 -23 -7 -4 -16 -2 -21 6 -7 11
-9 10 -10 -3 -1 -10 -2 -22 -3 -28 -1 -5 2 -10 7 -10 4 0 7 3 6 6 0 3 8 12 18
19 18 14 33 11 33 -6 0 -6 -4 -8 -9 -5 -5 3 -12 -1 -15 -10 -3 -8 -2 -12 3 -9
5 3 13 0 17 -6 4 -7 3 -9 -2 -6 -6 3 -16 2 -24 -4 -9 -5 -10 -9 -4 -9 7 0 15
-7 18 -16 7 -18 1 -15 -54 31 -22 18 -23 18 -10 1 13 -18 13 -19 -1 -14 -9 4
-16 1 -16 -7 0 -10 5 -11 19 -4 15 8 18 6 18 -10 0 -15 5 -19 18 -15 14 5 14
4 2 -4 -8 -7 -19 -7 -25 -2 -13 11 -55 9 -55 -3 0 -5 10 -5 21 -2 16 5 19 4
14 -5 -5 -9 -4 -11 3 -6 7 4 12 1 12 -8 0 -9 -7 -16 -15 -16 -20 0 -19 -10 1
-25 15 -10 14 -12 -7 -11 -17 1 -23 -4 -21 -16 2 -12 -2 -16 -12 -12 -16 6
-15 19 2 50 9 18 9 24 -3 34 -12 10 -13 7 -9 -14 2 -13 0 -28 -6 -31 -6 -4 -8
-11 -5 -16 4 -5 -1 -9 -9 -9 -8 0 -18 -5 -22 -12 -4 -6 -3 -8 4 -5 14 9 43 -3
36 -14 -3 -5 -11 -6 -17 -3 -7 4 -8 3 -4 -2 5 -5 13 -10 18 -10 5 -1 12 -2 17
-3 4 0 13 -10 19 -21 9 -14 10 -21 1 -26 -6 -4 -8 -3 -5 3 4 6 0 16 -8 23 -17
14 -16 15 -21 -25 -6 -51 -7 -53 -20 -48 -15 6 -28 -13 -14 -22 5 -3 10 -14 9
-23 0 -14 -2 -13 -9 3 -8 19 -9 19 -9 -1 -1 -12 -8 -24 -16 -28 -9 -3 -12 -12
-9 -23 5 -15 4 -16 -5 -3 -9 13 -11 13 -11 -1 0 -8 5 -20 11 -26 8 -8 7 -13
-3 -18 -7 -5 -10 -4 -5 0 4 5 0 16 -9 26 -15 16 -14 19 5 35 14 13 17 21 10
30 -7 8 -6 15 2 20 7 4 9 3 5 -4 -3 -6 -1 -14 5 -18 9 -5 10 0 6 18 -5 19 -2
28 9 32 12 5 14 10 5 20 -6 7 -8 16 -4 19 3 4 -1 7 -10 7 -19 0 -22 -11 -6
-27 8 -8 8 -13 0 -17 -6 -4 -11 -2 -11 4 0 6 -5 8 -11 4 -8 -5 -8 -9 1 -14 17
-11 2 -33 -18 -25 -12 4 -12 1 4 -16 15 -18 16 -21 3 -17 -12 5 -16 1 -15 -15
1 -18 -4 -21 -24 -19 -15 1 -20 -1 -13 -6 7 -5 9 -13 3 -21 -4 -8 -6 -20 -3
-28 3 -7 1 -13 -5 -13 -6 0 -13 6 -15 13 -3 7 -6 5 -6 -5 -1 -13 7 -18 25 -18
14 0 23 4 19 10 -3 6 -1 10 4 10 6 0 11 4 11 10 0 5 -6 8 -12 6 -7 -1 -10 -1
-5 1 4 3 5 8 2 13 -3 4 2 11 11 14 12 4 15 2 10 -9 -3 -8 -1 -15 5 -15 5 0 2
-11 -6 -24 -18 -26 -8 -40 22 -30 17 5 17 5 0 -6 -14 -9 -22 -9 -33 0 -13 12
-19 7 -15 -14 1 -5 -4 -13 -11 -17 -10 -7 -10 -9 2 -9 13 0 13 -1 0 -10 -8 -5
-17 -10 -20 -10 -11 0 -7 55 4 62 8 5 8 8 0 8 -6 0 -17 -7 -24 -15 -10 -12
-10 -15 0 -15 9 0 10 -3 1 -13 -7 -10 -7 -17 0 -24 8 -8 8 -13 0 -17 -6 -4
-11 -16 -11 -27 0 -13 -4 -18 -12 -13 -7 4 -4 -2 6 -14 19 -22 19 -22 -2 -22
-11 0 -23 6 -25 13 -3 6 -6 0 -6 -15 -1 -16 -6 -28 -12 -28 -6 0 -8 -9 -4 -21
6 -18 4 -20 -17 -15 -20 6 -20 5 -5 -4 9 -6 27 -9 40 -6 12 3 16 3 9 0 -6 -3
-9 -10 -6 -15 3 -6 0 -16 -6 -24 -7 -8 -9 -15 -5 -15 4 0 2 -6 -4 -13 -6 -8
-7 -18 -3 -23 4 -4 0 -3 -8 3 -20 15 -55 20 -55 8 0 -6 5 -10 12 -10 6 0 15
-4 20 -9 4 -5 3 -6 -4 -2 -7 4 -13 2 -13 -5 0 -7 -10 -9 -26 -6 l-25 4 20 -21
c12 -12 21 -26 21 -30 0 -24 226 -251 345 -346 172 -137 247 -180 457 -264
223 -89 361 -111 632 -103 356 11 591 64 930 209 259 111 372 175 576 326 335
248 557 474 836 852 264 357 478 763 679 1285 21 55 42 104 45 108 8 9 8 9 90
-213 220 -595 418 -976 702 -1352 186 -248 334 -403 528 -558 221 -176 391
-278 623 -374 374 -155 799 -194 1256 -115 159 27 240 51 420 122 481 190 800
404 1201 806 193 194 284 299 460 532 320 425 545 832 763 1381 260 653 393
1203 517 2133 65 490 98 992 120 1835 13 484 4 549 -99 747 -88 168 -220 291
-391 363 -155 65 -180 72 -290 77 -383 19 -694 -175 -843 -527 -55 -131 -64
-209 -77 -710 -30 -1182 -92 -1787 -251 -2450 -77 -320 -187 -672 -284 -911
-141 -345 -432 -835 -637 -1074 -355 -412 -713 -651 -1008 -672 -292 -20 -579
225 -860 737 -164 298 -328 725 -468 1220 -189 665 -281 1192 -322 1840 -15
227 -15 897 0 1115 23 360 62 696 95 825 24 96 28 188 11 310 -20 151 -45 228
-106 331 -59 98 -114 157 -225 241 -108 83 -199 124 -323 148 -94 18 -252 25
-307 13z m-3985 -6224 c0 -4 -5 -11 -12 -15 -7 -5 -8 -2 -3 7 6 11 5 12 -5 2
-12 -11 -11 -15 6 -27 18 -15 18 -15 -4 -9 -19 4 -21 2 -16 -13 4 -11 4 -16 0
-12 -5 4 -9 22 -10 41 -1 30 2 35 21 35 13 0 23 -4 23 -9z m-55 -84 c1 -25 -2
-32 -10 -25 -7 6 -15 6 -22 -1 -16 -16 -10 36 6 55 18 21 25 13 26 -29z m-125
-275 c0 -5 -4 -10 -10 -10 -5 0 -10 5 -10 10 0 6 5 10 10 10 6 0 10 -4 10 -10z
m-160 -250 c0 -5 -2 -10 -4 -10 -3 0 -8 5 -11 10 -3 6 -1 10 4 10 6 0 11 -4
11 -10z m30 -50 c0 -5 -7 -6 -17 -3 -11 4 -14 3 -9 -6 4 -6 2 -18 -4 -26 -10
-12 -10 -18 0 -30 11 -14 10 -14 -12 -6 -14 5 -28 8 -30 5 -3 -2 -4 6 -2 19 1
12 3 26 3 31 1 5 7 3 15 -3 10 -8 16 -9 21 -1 3 5 1 10 -5 10 -6 0 -8 5 -5 10
8 13 45 13 45 0z m-131 -286 c6 4 11 5 11 3 0 -3 -12 -13 -27 -22 -16 -10 -23
-12 -16 -5 6 7 9 20 6 29 -4 13 -3 13 5 2 5 -7 15 -10 21 -7z m-199 -414 c0
-11 -24 -30 -37 -30 -7 0 -13 8 -12 18 0 10 3 12 6 5 2 -7 9 -13 15 -13 6 0 8
6 5 13 -3 8 1 14 9 14 8 0 14 -3 14 -7z m-25 -58 c-3 -3 -11 0 -18 7 -9 10 -8
11 6 5 10 -3 15 -9 12 -12z m-59 -38 c-4 -10 -2 -14 6 -11 7 2 12 10 10 17 -3
11 0 11 12 1 16 -14 12 -36 -5 -26 -5 4 -9 2 -9 -3 0 -6 -9 -8 -19 -5 -17 4
-18 8 -8 24 14 23 21 25 13 3z m31 -76 c-3 -8 -6 -5 -6 6 -1 11 2 17 5 13 3
-3 4 -12 1 -19z m-50 -95 c0 -9 -4 -10 -14 -2 -7 6 -13 12 -13 14 0 1 6 2 13
2 8 0 14 -6 14 -14z m-27 -18 c14 -18 14 -19 -2 -7 -9 8 -22 11 -27 8 -5 -4
-13 -1 -17 5 -4 7 -3 9 4 5 6 -3 14 -1 17 5 4 5 8 9 9 7 1 -2 8 -12 16 -23z"/>
<path d="M6374 7679 c-4 -7 -3 -9 4 -5 5 3 13 0 15 -6 4 -9 6 -10 6 -1 1 17
-16 25 -25 12z"/>
<path d="M6403 7825 c4 -5 -3 -15 -15 -22 -13 -7 -18 -12 -12 -13 5 0 18 6 29
13 15 12 16 15 4 22 -8 5 -10 4 -6 0z"/>
<path d="M6348 7713 c7 -3 16 -2 19 1 4 3 -2 6 -13 5 -11 0 -14 -3 -6 -6z"/>
<path d="M6242 7485 c10 -11 48 -14 48 -4 0 5 -12 9 -27 9 -14 0 -24 -2 -21
-5z"/>
<path d="M6132 7161 c7 -12 14 -17 16 -12 2 6 11 7 20 4 9 -3 14 -3 10 1 -3 4
-12 8 -20 10 -7 1 -19 5 -26 10 -11 7 -11 4 0 -13z"/>
<path d="M5925 6750 c2 -3 0 -12 -6 -20 -6 -11 -9 -12 -9 -2 0 7 -5 10 -11 6
-8 -4 -7 -9 2 -15 8 -4 14 -14 14 -20 0 -7 6 -14 13 -17 11 -3 12 0 3 17 -7
12 -8 21 -2 21 5 0 12 -6 14 -12 4 -10 6 -10 6 -1 1 6 -4 15 -10 18 -6 5 -4
11 6 19 15 10 14 12 -4 12 -11 0 -18 -3 -16 -6z"/>
<path d="M5741 6398 c-1 -10 -5 -18 -11 -18 -5 0 -10 -8 -10 -17 0 -14 3 -13
16 5 8 12 13 28 11 35 -3 7 -6 5 -6 -5z"/>
<path d="M5675 6290 c-3 -5 -1 -10 4 -10 6 0 11 5 11 10 0 6 -2 10 -4 10 -3 0
-8 -4 -11 -10z"/>
<path d="M5667 6233 c-2 -4 -1 -19 4 -33 4 -16 7 -19 8 -7 1 9 4 16 9 16 18
-3 32 2 32 12 0 5 -5 7 -10 4 -6 -4 -17 -2 -25 5 -7 6 -15 7 -18 3z"/>
<path d="M5636 6202 c-3 -5 1 -9 9 -9 8 0 12 4 9 9 -3 4 -7 8 -9 8 -2 0 -6 -4
-9 -8z"/>
</g>
</svg>
